<?xml version="1.0" encoding="UTF-8"?>
<svg xmlns="http://www.w3.org/2000/svg" viewBox="0 0 64 64" role="img" aria-label="Cyber ant goggles favicon">
  <defs>
    <linearGradient id="ant-body" x1="0%" y1="0%" x2="100%" y2="100%">
      <stop offset="0%" stop-color="#ffb56b" />
      <stop offset="100%" stop-color="#d95a1f" />
    </linearGradient>
    <linearGradient id="goggles" x1="0%" y1="0%" x2="100%" y2="100%">
      <stop offset="0%" stop-color="#fff8e1" />
      <stop offset="100%" stop-color="#f0c27b" />
    </linearGradient>
  </defs>
  <rect width="64" height="64" rx="12" fill="#120f14" />
  <g transform="translate(8 8)">
    <path d="M20 10c-4 0-8 2-10 6-1 2-2 5-1 8 1 3 4 7 9 7s8-4 9-7c1-3 0-6-1-8-2-4-6-6-10-6z" fill="url(#ant-body)" />
    <path d="M10 17c0-3 3-6 7-6s7 3 7 6v7c0 3-3 6-7 6s-7-3-7-6v-7z" fill="#1f1720" />
    <path d="M12 19h10v6H12z" fill="url(#goggles)" stroke="#2f1d12" stroke-width="2" />
    <path d="M13 21h4v2h-4zM17 21h4v2h-4z" fill="#120f14" />
    <circle cx="16" cy="22" r="2" fill="#120f14" />
    <circle cx="22" cy="22" r="2" fill="#120f14" />
    <path d="M10 12c-1-4-5-5-7-3-2 2-1 5 1 7" stroke="#f9f0d2" stroke-width="2" fill="none" stroke-linecap="round" />
    <path d="M34 12c1-4 5-5 7-3 2 2 1 5-1 7" stroke="#f9f0d2" stroke-width="2" fill="none" stroke-linecap="round" />
    <path d="M20 32c2 1 5 1 8 0" stroke="#2f1d12" stroke-width="3" fill="none" stroke-linecap="round" />
    <path d="M14 34c-4 0-6 4-6 6v4h36v-4c0-2-2-6-6-6" fill="#241818" />
    <path d="M14 36h36" stroke="#4f2f19" stroke-width="2" />
  </g>
</svg>
